# xmcd
#
# Track frame offsets: 
#        150
#        45398
#        77256
#        120066
#        134748
#        163877
#        214998
#        276432
#
# Disc length: 3978 seconds
#
# Revision: 2
# Processed by: cddbd v1.5.2PL0 Copyright (c) Steve Scherf et al.
# Submitted via: ExactAudioCopy v0.99pb5
#
DISCID=6b0f8808
DTITLE=Del-Alfoldi Szaxofonegyuttes - Dusk
DYEAR=1997
DGENRE=Jazz
TTITLE0=Lament
TTITLE1=New Dance?
TTITLE2=Fekete Kata
TTITLE3=Metropolis Shaman Song
TTITLE4=Verbunk es silladri
TTITLE5=Swallow (To My Master)
TTITLE6=Dusk (To The Memory of Csiribiri)
TTITLE7=Cool
EXTD=YEAR: 1997
EXTT0=
EXTT1=
EXTT2=
EXTT3=
EXTT4=
EXTT5=
EXTT6=
EXTT7=
PLAYORDER=
